<svg t="1694162830336" class="icon" viewBox="0 0 1024 1024" version="1.1" xmlns="http://www.w3.org/2000/svg" p-id="8918" width="200" height="200"><path d="M316.8 784h377.6v140.8c0 42.24-34.56 76.8-76.8 76.8h-518.4c-42.24 0-76.8-34.56-76.8-76.8v-518.4c0-42.24 34.56-76.8 76.8-76.8h140.8v377.6c0 42.24 34.56 76.8 76.8 76.8z" fill="#666666" p-id="8919"></path><path d="M1008 105.6v518.4c0 42.24-34.56 76.8-76.8 76.8h-518.4c-42.24 0-76.8-34.56-76.8-76.8v-518.4c0-42.24 34.56-76.8 76.8-76.8h518.4c42.24 0 76.8 34.56 76.8 76.8z" fill="#666666" p-id="8920"></path></svg>
