<svg t="1694167710509" class="icon" viewBox="0 0 1024 1024" version="1.1" xmlns="http://www.w3.org/2000/svg" p-id="15983" width="200" height="200"><path d="M846.53 290a24.12 24.12 0 0 0-14.8-1.25L175.59 431.88a24 24 0 0 0-15.76 11.31c-7.05 12-2 27.46 10.31 33.82l138.37 76.39 36 188.38a28.9 28.9 0 0 0 44.71 18.41l101-69.19 128.44 142.25a34.71 34.71 0 0 0 57.74-11.72l185.78-498.67c5.53-14.86-3.27-28.57-15.65-32.86zM695.3 395.35L414.59 582.08a23.34 23.34 0 0 0-10 15.12l-22.1 117.1a3.1 3.1 0 0 1-6.12-0.12l-21.85-146a19.18 19.18 0 0 1 10.15-19.86L689.82 386c6.06-3.11 11.18 5.56 5.48 9.35z" fill="#F76E39" p-id="15984"></path></svg>