<svg t="1694922822754" class="icon" viewBox="0 0 1024 1024" version="1.1" xmlns="http://www.w3.org/2000/svg" p-id="4352" width="200" height="200"><path d="M512 298.666667c117.76 0 213.333333 95.573333 213.333333 213.333333 0 27.733333-5.546667 53.76-15.36 78.08l124.586667 124.586667c64.426667-53.76 115.2-123.306667 146.346667-202.666667-73.813333-187.306667-256-320-469.333334-320-59.733333 0-116.906667 10.666667-169.813333 29.866667l92.16 92.16C458.24 304.213333 484.266667 298.666667 512 298.666667zM85.333333 182.186667l97.28 97.28 19.626667 19.626666A503.637333 503.637333 0 0 0 42.666667 512c73.813333 187.306667 256 320 469.333333 320 66.133333 0 129.28-12.8 186.88-35.84l17.92 17.92L841.813333 938.666667 896 884.48 139.52 128 85.333333 182.186667zM321.28 418.133333l66.133333 66.133334c-2.133333 8.96-3.413333 18.346667-3.413333 27.733333 0 70.826667 57.173333 128 128 128 9.386667 0 18.773333-1.28 27.733333-3.413333l66.133334 66.133333c-28.586667 14.08-60.16 22.613333-93.866667 22.613333-117.76 0-213.333333-95.573333-213.333333-213.333333 0-33.706667 8.533333-65.28 22.613333-93.866667z m183.893333-33.28l134.4 134.4 0.853334-6.826666c0-70.826667-57.173333-128-128-128l-7.253334 0.426666z" p-id="4353" fill="#707070"></path></svg>