<svg t="1694167402321" class="icon" viewBox="0 0 1024 1024" version="1.1" xmlns="http://www.w3.org/2000/svg" p-id="5149" width="200" height="200"><path d="M512 57.677643C261.084506 57.677643 57.677643 261.084506 57.677643 512s203.406863 454.322357 454.322357 454.322357 454.322357-203.406863 454.322357-454.322357S762.915494 57.677643 512 57.677643z" fill="#89B7FF" p-id="5150"></path><path d="M574.292742 467.479958c98.402496-98.402496 199.008277-157.332187 224.708547-131.631916 25.706482 25.706482-33.222322 126.311376-131.626592 224.714759-69.494461 69.494461-140.091009 119.304873-184.627023 133.519306-5.030378 2.413588-10.914385 3.680721-17.476326 3.871501-5.891106 0.594523-11.002232 0.199653-15.218024-1.247611-31.752873-5.672818-73.424527-30.023432-111.022364-67.622156-58.328069-58.327182-84.768388-126.443591-59.068118-152.143862 25.706482-25.706482 93.822003 0.733837 152.150073 59.061907 16.800166 16.800166 30.956035 34.414031 41.981338 51.592208 24.079085-36.552541 58.614683-78.530329 100.199376-120.114136z" fill="#FFFFFF" p-id="5151"></path></svg>