<svg t="1692783554154" class="icon" viewBox="0 0 1024 1024" version="1.1" xmlns="http://www.w3.org/2000/svg" p-id="2000" width="200" height="200"><path d="M1024 512c0 159.018667 0 238.549333-25.984 301.269333a341.333333 341.333333 0 0 1-184.746667 184.746667C750.549333 1024 671.018667 1024 512 1024c-159.061333 0-238.549333 0-301.269333-25.984a341.333333 341.333333 0 0 1-184.746667-184.746667C0 750.549333 0 671.018667 0 512c0-159.061333 0-238.549333 25.984-301.269333a341.333333 341.333333 0 0 1 184.746667-184.746667C273.450667 0 352.938667 0 512 0c159.018667 0 238.549333 0 301.269333 25.984a341.333333 341.333333 0 0 1 184.746667 184.746667C1024 273.450667 1024 352.938667 1024 512z" fill="#27AD9A" p-id="2001"></path><path d="M485.546667 778.154667a34.133333 34.133333 0 0 0 52.906666 0L725.333333 548.565333a34.133333 34.133333 0 0 0-26.453333-55.68h-85.76l-67.84-301.866666c-7.936-35.541333-58.581333-35.541333-66.56 0l-67.84 301.866666H325.12A34.133333 34.133333 0 0 0 298.666667 548.565333l186.88 229.546667z" fill="#FFFFFF" p-id="2002"></path></svg>