<svg t="1694922846908" class="icon" viewBox="0 0 1024 1024" version="1.1" xmlns="http://www.w3.org/2000/svg" p-id="4699" width="200" height="200"><path d="M512 192C298.666667 192 116.48 324.693333 42.666667 512c73.813333 187.306667 256 320 469.333333 320s395.52-132.693333 469.333333-320c-73.813333-187.306667-256-320-469.333333-320zM512 725.333333c-117.76 0-213.333333-95.573333-213.333333-213.333333s95.573333-213.333333 213.333333-213.333333 213.333333 95.573333 213.333333 213.333333-95.573333 213.333333-213.333333 213.333333z m0-341.333333c-70.826667 0-128 57.173333-128 128s57.173333 128 128 128 128-57.173333 128-128-57.173333-128-128-128z" p-id="4700" fill="#707070"></path></svg>