<svg height="1024" node-id="1" sillyvg="true" template-height="1024" template-width="1330" version="1.1" viewBox="0 0 1330 1024" width="1330" xmlns="http://www.w3.org/2000/svg" xmlns:xlink="http://www.w3.org/1999/xlink"><defs node-id="34"></defs><g node-id="36"><path d="M 1028.67 736.49 L 1019.45 710.37 C 1087.17 708.61 1154.92 708.12 1222.69 708.90 C 1265.65 709.39 1299.45 703.18 1301.54 654.57 C 1302.69 627.81 1302.73 579.81 1301.66 510.57 C 1299.51 370.14 1303.07 229.65 1300.86 89.16 C 1300.19 45.89 1280.27 29.66 1236.58 29.23 C 1103.54 27.84 970.51 27.60 837.47 28.50 C 751.18 29.05 653.04 27.39 560.60 29.05 C 524.53 29.73 501.54 42.45 499.70 80.06 C 499.62 82.11 498.94 83.93 497.67 85.53 L 492.20 92.47 L 470.69 86.33 C 474.32 2.19 529.08 -0.08 601.23 1.27 C 814.67 5.45 1035.24 -1.86 1241.92 0.47 C 1282.90 0.96 1309.49 16.33 1321.70 46.57 C 1326.82 59.23 1329.42 86.23 1329.50 127.57 C 1329.83 300.80 1329.52 474.04 1328.58 647.31 C 1328.27 707.24 1299.69 736.24 1239.83 736.37 C 1169.40 736.53 1099.01 736.57 1028.67 736.49 Z" fill="#605c5d" fill-rule="nonzero" group-id="1" id="路径" node-id="6" stroke="none" target-height="738.43" target-width="859.13995" target-x="470.69" target-y="-1.86"></path><path d="M 1019.45 710.37 C 975.75 670.85 895.98 687.82 843.06 696.91 C 836.10 698.10 834.56 695.74 838.45 689.84 C 870.94 640.47 884.16 584.32 878.09 521.39 C 888.99 521.39 897.60 522.80 903.91 525.63 C 906.00 526.57 907.04 528.17 907.04 530.42 L 907.04 561.52 C 907.05 565.18 908.66 568.65 911.44 571.00 C 914.22 573.36 917.90 574.36 921.48 573.75 C 940.60 570.55 933.90 543.33 935.00 529.38 C 935.17 527.00 936.44 525.59 938.81 525.14 C 1015.84 510.30 1061.87 464.40 1076.91 387.41 C 1077.36 385.16 1078.71 383.89 1080.97 383.60 C 1097.25 381.51 1118.76 389.44 1125.28 370.57 C 1126.51 367.04 1125.99 363.13 1123.88 360.04 C 1121.77 356.95 1118.32 355.04 1114.58 354.90 L 1080.23 353.49 C 1078.39 353.40 1077.28 352.46 1076.91 350.66 C 1061.75 273.51 1015.74 227.41 938.88 212.38 C 936.83 211.97 935.64 210.74 935.31 208.69 C 932.85 194.62 940.78 170.28 924.93 165.55 C 900.53 158.30 907.78 195.54 906.61 208.87 C 906.45 210.96 905.34 212.17 903.29 212.50 C 874.37 217.17 848.04 227.95 824.32 244.83 C 815.76 244.25 812.03 239.67 813.13 231.06 C 830.03 99.36 778.90 26.47 649.23 117.12 C 647.55 118.27 645.68 118.84 643.63 118.84 L 636.87 118.84 C 637.18 101.14 616.28 103.41 601.78 103.35 C 599.40 103.35 598.24 102.18 598.28 99.85 C 598.40 86.82 601.10 61.19 579.10 65.37 C 574.75 66.17 571.51 69.86 571.30 74.28 L 569.82 100.52 C 569.70 103.19 568.31 104.29 565.64 103.84 C 553.39 101.84 542.15 103.76 531.90 109.62 L 492.20 92.47 L 497.67 85.53 C 498.94 83.93 499.62 82.11 499.70 80.06 C 501.54 42.45 524.53 29.73 560.60 29.05 C 653.04 27.39 751.18 29.05 837.47 28.50 C 970.51 27.60 1103.54 27.84 1236.58 29.23 C 1280.27 29.66 1300.19 45.89 1300.86 89.16 C 1303.07 229.65 1299.51 370.14 1301.66 510.57 C 1302.73 579.81 1302.69 627.81 1301.54 654.57 C 1299.45 703.18 1265.65 709.39 1222.69 708.90 C 1154.92 708.12 1087.17 708.61 1019.45 710.37 Z M 1237.68 102.31 C 1234.49 101.42 1232.00 98.92 1231.11 95.73 L 1224.53 72.01 C 1223.37 67.95 1219.66 65.16 1215.44 65.16 C 1211.22 65.16 1207.51 67.95 1206.34 72.01 L 1199.76 95.73 C 1198.87 98.92 1196.38 101.42 1193.19 102.31 L 1169.47 108.88 C 1165.41 110.05 1162.62 113.76 1162.62 117.98 C 1162.62 122.20 1165.41 125.91 1169.47 127.07 L 1193.19 133.65 C 1196.38 134.54 1198.87 137.03 1199.76 140.23 L 1206.34 163.95 C 1207.51 168.00 1211.22 170.80 1215.44 170.80 C 1219.66 170.80 1223.37 168.00 1224.53 163.95 L 1231.11 140.23 C 1232.00 137.03 1234.49 134.54 1237.68 133.65 L 1261.41 127.07 C 1265.46 125.91 1268.25 122.20 1268.25 117.98 C 1268.25 113.76 1265.46 110.05 1261.41 108.88 L 1237.68 102.31 Z M 1237.62 609.58 C 1234.52 608.72 1232.09 606.29 1231.23 603.19 L 1224.35 578.24 C 1223.26 574.28 1219.66 571.53 1215.55 571.51 C 1211.44 571.50 1207.83 574.22 1206.71 578.17 L 1199.70 603.13 C 1198.85 606.23 1196.42 608.66 1193.31 609.52 L 1168.36 616.40 C 1164.40 617.49 1161.65 621.09 1161.64 625.20 C 1161.62 629.31 1164.35 632.92 1168.30 634.04 L 1193.25 641.05 C 1196.36 641.90 1198.78 644.33 1199.64 647.44 L 1206.52 672.39 C 1207.62 676.35 1211.21 679.10 1215.32 679.11 C 1219.43 679.13 1223.04 676.40 1224.16 672.45 L 1231.17 647.50 C 1232.03 644.39 1234.45 641.96 1237.56 641.11 L 1262.51 634.22 C 1266.47 633.13 1269.22 629.54 1269.24 625.43 C 1269.25 621.32 1266.53 617.71 1262.57 616.59 L 1237.62 609.58 Z" fill="#777677" fill-rule="nonzero" group-id="1" id="形状" node-id="7" stroke="none" target-height="683.9" target-width="810.86993" target-x="492.2" target-y="26.47"></path><path d="M 470.69 86.33 L 492.20 92.47 L 531.90 109.62 L 558.27 134.45 C 559.74 140.60 563.25 145.12 568.78 148.03 C 569.31 156.10 571.95 163.36 576.71 169.79 L 580.02 224.85 C 573.63 262.47 560.75 297.72 541.37 330.62 C 509.90 376.43 473.03 417.40 430.74 453.54 L 383.11 486.30 C 314.94 529.40 240.68 555.52 160.33 564.65 L 134.21 563.12 C 81.54 551.81 39.63 544.37 13.75 493.61 C -19.80 427.85 14.12 356.13 50.57 298.91 C 51.75 297.11 52.00 295.16 51.30 293.07 C 38.52 253.62 30.16 201.25 62.24 167.76 C 95.61 132.91 130.58 142.68 173.48 154.36 C 175.98 155.02 177.29 154.08 177.41 151.53 C 183.93 32.00 271.75 26.10 350.48 89.71 C 352.12 91.02 353.98 91.59 356.07 91.43 C 396.08 88.23 419.93 81.90 470.69 86.33 Z M 140.05 423.79 C 255.04 422.99 398.11 328.10 440.02 220.12 C 440.84 217.99 440.52 216.09 439.04 214.41 L 410.22 181.28 C 408.00 178.74 406.18 178.99 404.75 182.02 C 352.02 290.55 232.42 360.18 116.88 379.24 C 113.52 379.81 112.62 381.61 114.17 384.64 L 132.12 419.06 C 133.80 422.26 136.44 423.83 140.05 423.79 Z" fill="#66e0e9" fill-rule="nonzero" group-id="1" id="形状" node-id="8" stroke="none" target-height="538.55005" target-width="599.82" target-x="-19.8" target-y="26.1"></path><path d="M 636.87 118.84 C 633.68 127.81 622.55 132.87 603.50 134.02 C 598.75 134.31 596.86 136.76 597.85 141.39 C 600.84 155.86 593.79 165.32 576.71 169.79 C 571.95 163.36 569.31 156.10 568.78 148.03 C 571.97 140.84 569.39 125.60 558.27 134.45 L 531.90 109.62 C 542.15 103.76 553.39 101.84 565.64 103.84 C 568.31 104.29 569.70 103.19 569.82 100.52 L 571.30 74.28 C 571.51 69.86 574.75 66.17 579.10 65.37 C 601.10 61.19 598.40 86.82 598.28 99.85 C 598.24 102.18 599.40 103.35 601.78 103.35 C 616.28 103.41 637.18 101.14 636.87 118.84 Z" fill="#ffffff" fill-rule="nonzero" group-id="1" id="路径" node-id="9" stroke="none" target-height="108.59999" target-width="105.27997" target-x="531.9" target-y="61.19"></path><path d="M 1237.68 102.31 L 1261.41 108.88 C 1265.46 110.05 1268.25 113.76 1268.25 117.98 C 1268.25 122.20 1265.46 125.91 1261.41 127.07 L 1237.68 133.65 C 1234.49 134.54 1232.00 137.03 1231.11 140.23 L 1224.53 163.95 C 1223.37 168.00 1219.66 170.80 1215.44 170.80 C 1211.22 170.80 1207.51 168.00 1206.34 163.95 L 1199.76 140.23 C 1198.87 137.03 1196.38 134.54 1193.19 133.65 L 1169.47 127.07 C 1165.41 125.91 1162.62 122.20 1162.62 117.98 C 1162.62 113.76 1165.41 110.05 1169.47 108.88 L 1193.19 102.31 C 1196.38 101.42 1198.87 98.92 1199.76 95.73 L 1206.34 72.01 C 1207.51 67.95 1211.22 65.16 1215.44 65.16 C 1219.66 65.16 1223.37 67.95 1224.53 72.01 L 1231.11 95.73 C 1232.00 98.92 1234.49 101.42 1237.68 102.31 L 1237.68 102.31 Z" fill="#ffffff" fill-rule="nonzero" group-id="1" id="路径" node-id="10" stroke="none" target-height="105.64" target-width="105.630005" target-x="1162.62" target-y="65.16"></path><path d="M 824.32 244.83 C 816.37 250.89 811.78 255.62 810.55 259.02 C 804.53 275.54 802.71 292.58 805.08 310.16 C 836.92 350.41 861.93 397.92 868.69 449.54 C 870.45 463.06 873.51 476.34 877.85 489.37 L 878.09 521.39 C 884.16 584.32 870.94 640.47 838.45 689.84 C 834.56 695.74 836.10 698.10 843.06 696.91 C 895.98 687.82 975.75 670.85 1019.45 710.37 L 1028.67 736.49 C 1031.31 811.71 950.00 835.44 892.54 848.71 C 890.49 849.16 889.42 850.45 889.34 852.58 C 885.78 960.81 713.94 975.19 638.10 974.64 C 636.59 974.64 633.60 975.46 629.13 977.10 C 562.88 976.15 498.47 965.60 435.91 945.45 C 433.02 944.51 430.76 942.23 429.87 939.34 C 428.97 936.45 429.55 933.31 431.42 930.94 L 438.67 921.66 C 440.27 919.57 442.34 918.90 444.88 919.63 C 558.70 954.30 694.77 959.21 804.28 917.91 C 829.11 908.51 865.74 884.36 859.17 853.57 C 852.90 824.19 801.46 828.31 778.41 831.01 C 733.10 836.38 687.76 841.66 642.40 846.87 C 629.56 848.34 596.25 852.58 603.38 826.46 C 604.20 823.50 606.74 821.36 609.77 821.06 C 670.33 815.44 731.01 808.93 791.81 801.51 C 822.82 797.70 850.77 804.07 875.64 820.63 C 877.36 821.77 879.22 822.16 881.23 821.79 C 913.86 815.83 1011.40 790.33 999.04 737.84 C 988.47 693.10 837.04 725.73 802.87 730.77 C 800.86 731.06 799.06 731.84 797.46 733.11 C 785.97 742.39 734.90 783.20 725.80 754.62 C 723.97 748.82 726.73 742.55 732.26 739.99 C 813.93 702.32 851.30 632.07 850.32 543.82 C 849.09 436.39 818.11 342.36 729.06 276.91 C 722.34 271.99 719.70 265.99 721.13 258.90 C 731.42 248.17 743.17 248.90 756.41 261.11 L 772.88 275.25 C 774.39 276.56 775.44 276.25 776.01 274.33 C 786.22 238.68 815.10 76.37 726.36 108.39 C 679.34 125.29 632.20 163.27 595.20 196.52 C 594.48 197.17 594.20 198.18 594.47 199.11 C 594.75 200.04 595.53 200.73 596.50 200.89 L 633.55 206.17 C 643.22 208.63 648.34 214.77 648.92 224.61 C 642.83 244.64 601.90 231.31 585.92 229.22 L 580.02 224.85 L 576.71 169.79 C 593.79 165.32 600.84 155.86 597.85 141.39 C 596.86 136.76 598.75 134.31 603.50 134.02 C 622.55 132.87 633.68 127.81 636.87 118.84 L 643.63 118.84 C 645.68 118.84 647.55 118.27 649.23 117.12 C 778.90 26.47 830.03 99.36 813.13 231.06 C 812.03 239.67 815.76 244.25 824.32 244.83 Z" fill="#678490" fill-rule="nonzero" group-id="1" id="路径" node-id="11" stroke="none" target-height="950.63" target-width="602.3401" target-x="428.97" target-y="26.47"></path><path d="M 756.41 261.11 C 761.65 242.14 758.42 225.06 746.70 209.86 C 745.35 208.14 745.10 206.25 745.96 204.20 C 758.87 174.15 764.15 129.84 714.62 136.17 C 686.16 139.80 652.24 179.99 633.55 206.17 L 596.50 200.89 C 595.53 200.73 594.75 200.04 594.47 199.11 C 594.20 198.18 594.48 197.17 595.20 196.52 C 632.20 163.27 679.34 125.29 726.36 108.39 C 815.10 76.37 786.22 238.68 776.01 274.33 C 775.44 276.25 774.39 276.56 772.88 275.25 L 756.41 261.11 Z" fill="#b0b9c6" fill-rule="nonzero" group-id="1" id="路径" node-id="12" stroke="none" target-height="200.19" target-width="220.89996" target-x="594.2" target-y="76.37"></path><path d="M 568.78 148.03 C 563.25 145.12 559.74 140.60 558.27 134.45 C 569.39 125.60 571.97 140.84 568.78 148.03 Z" fill="#678490" fill-rule="nonzero" group-id="1" id="路径" node-id="13" stroke="none" target-height="22.43" target-width="13.699951" target-x="558.27" target-y="125.6"></path><path d="M 756.41 261.11 C 743.17 248.90 731.42 248.17 721.13 258.90 C 698.23 245.14 674.16 233.70 648.92 224.61 C 648.34 214.77 643.22 208.63 633.55 206.17 C 652.24 179.99 686.16 139.80 714.62 136.17 C 764.15 129.84 758.87 174.15 745.96 204.20 C 745.10 206.25 745.35 208.14 746.70 209.86 C 758.42 225.06 761.65 242.14 756.41 261.11 Z" fill="#ffffff" fill-rule="nonzero" group-id="1" id="路径" node-id="14" stroke="none" target-height="131.26999" target-width="130.60004" target-x="633.55" target-y="129.84"></path><path d="M 878.09 521.39 L 877.85 489.37 L 900.40 495.27 C 902.74 495.88 904.30 495.04 905.07 492.75 C 909.25 480.64 914.85 462.63 931.38 477.57 C 932.85 478.88 933.69 480.50 933.90 482.42 L 935.13 493.18 C 935.46 495.92 936.95 497.01 939.61 496.44 C 996.15 483.78 1031.86 449.58 1046.73 393.86 C 1048.37 387.72 1046.06 384.13 1039.79 383.11 C 1027.44 381.14 1020.18 370.63 1028.36 359.38 C 1029.71 357.50 1031.51 356.35 1033.77 355.94 L 1044.95 353.85 C 1047.21 353.44 1048.09 352.11 1047.59 349.86 C 1034.65 290.90 998.90 254.87 940.35 241.75 C 937.40 241.10 935.91 242.29 935.86 245.32 C 935.66 259.00 928.76 265.44 915.15 264.62 C 912.78 264.45 911.24 263.24 910.54 260.99 L 905.26 244.34 C 904.52 242.08 902.98 241.20 900.65 241.69 C 859.80 250.38 827.94 273.20 805.08 310.16 C 802.71 292.58 804.53 275.54 810.55 259.02 C 811.78 255.62 816.37 250.89 824.32 244.83 C 848.04 227.95 874.37 217.17 903.29 212.50 C 905.34 212.17 906.45 210.96 906.61 208.87 C 907.78 195.54 900.53 158.30 924.93 165.55 C 940.78 170.28 932.85 194.62 935.31 208.69 C 935.64 210.74 936.83 211.97 938.88 212.38 C 1015.74 227.41 1061.75 273.51 1076.91 350.66 C 1077.28 352.46 1078.39 353.40 1080.23 353.49 L 1114.58 354.90 C 1118.32 355.04 1121.77 356.95 1123.88 360.04 C 1125.99 363.13 1126.51 367.04 1125.28 370.57 C 1118.76 389.44 1097.25 381.51 1080.97 383.60 C 1078.71 383.89 1077.36 385.16 1076.91 387.41 C 1061.87 464.40 1015.84 510.30 938.81 525.14 C 936.44 525.59 935.17 527.00 935.00 529.38 C 933.90 543.33 940.60 570.55 921.48 573.75 C 917.90 574.36 914.22 573.36 911.44 571.00 C 908.66 568.65 907.05 565.18 907.04 561.52 L 907.04 530.42 C 907.04 528.17 906.00 526.57 903.91 525.63 C 897.60 522.80 888.99 521.39 878.09 521.39 Z" fill="#ffffff" fill-rule="nonzero" group-id="1" id="路径" node-id="15" stroke="none" target-height="416.06" target-width="323.8" target-x="802.71" target-y="158.3"></path><path d="M 140.05 423.79 C 136.44 423.83 133.80 422.26 132.12 419.06 L 114.17 384.64 C 112.62 381.61 113.52 379.81 116.88 379.24 C 232.42 360.18 352.02 290.55 404.75 182.02 C 406.18 178.99 408.00 178.74 410.22 181.28 L 439.04 214.41 C 440.52 216.09 440.84 217.99 440.02 220.12 C 398.11 328.10 255.04 422.99 140.05 423.79 Z" fill="#ffffff" fill-rule="nonzero" group-id="1" id="路径" node-id="16" stroke="none" target-height="245.08998" target-width="328.22" target-x="112.62" target-y="178.74"></path><path d="M 580.02 224.85 L 585.92 229.22 C 581.91 230.28 580.43 232.93 581.50 237.15 C 586.35 256.87 591.21 360.86 541.37 330.62 C 560.75 297.72 573.63 262.47 580.02 224.85 Z" fill="#91a1b5" fill-rule="nonzero" group-id="1" id="路径" node-id="17" stroke="none" target-height="136.00998" target-width="49.840027" target-x="541.37" target-y="224.85"></path><path d="M 648.92 224.61 C 674.16 233.70 698.23 245.14 721.13 258.90 C 719.70 265.99 722.34 271.99 729.06 276.91 C 818.11 342.36 849.09 436.39 850.32 543.82 C 851.30 632.07 813.93 702.32 732.26 739.99 C 726.73 742.55 723.97 748.82 725.80 754.62 C 734.90 783.20 785.97 742.39 797.46 733.11 C 799.06 731.84 800.86 731.06 802.87 730.77 C 837.04 725.73 988.47 693.10 999.04 737.84 C 1011.40 790.33 913.86 815.83 881.23 821.79 C 879.22 822.16 877.36 821.77 875.64 820.63 C 850.77 804.07 822.82 797.70 791.81 801.51 C 731.01 808.93 670.33 815.44 609.77 821.06 C 606.74 821.36 604.20 823.50 603.38 826.46 C 596.25 852.58 629.56 848.34 642.40 846.87 C 687.76 841.66 733.10 836.38 778.41 831.01 C 801.46 828.31 852.90 824.19 859.17 853.57 C 865.74 884.36 829.11 908.51 804.28 917.91 C 694.77 959.21 558.70 954.30 444.88 919.63 C 442.34 918.90 440.27 919.57 438.67 921.66 L 431.42 930.94 C 429.55 933.31 428.97 936.45 429.87 939.34 C 430.76 942.23 433.02 944.51 435.91 945.45 C 498.47 965.60 562.88 976.15 629.13 977.10 C 606.23 997.62 580.60 1011.16 552.25 1017.72 C 513.22 1026.82 381.95 1030.87 353.49 995.10 C 347.76 987.93 341.24 981.71 333.95 976.42 C 334.23 931.88 339.93 889.07 351.03 847.97 C 352.30 843.18 355.42 840.68 360.37 840.48 L 471.12 836.54 C 477.02 836.32 481.92 831.96 482.80 826.16 C 484.60 814.07 480.07 808.25 469.22 808.70 C 446.97 809.56 431.30 810.12 402.53 811.71 C 242.81 820.75 188.11 698.63 160.33 564.65 C 240.68 555.52 314.94 529.40 383.11 486.30 C 400.77 491.38 418.86 490.11 437.38 482.48 C 442.80 480.28 445.81 474.48 444.51 468.78 C 442.91 461.98 438.32 456.90 430.74 453.54 C 473.03 417.40 509.90 376.43 541.37 330.62 C 591.21 360.86 586.35 256.87 581.50 237.15 C 580.43 232.93 581.91 230.28 585.92 229.22 C 601.90 231.31 642.83 244.64 648.92 224.61 Z M 659.09 423.43 C 657.69 416.27 650.74 411.60 643.58 413.01 L 610.53 419.49 C 603.37 420.90 598.71 427.84 600.11 435.00 L 600.40 436.45 C 601.80 443.61 608.74 448.28 615.91 446.87 L 648.95 440.39 C 656.12 438.98 660.78 432.04 659.38 424.88 L 659.09 423.43 Z M 697.69 548.00 C 718.95 543.40 731.80 519.37 726.39 494.32 C 720.97 469.27 699.34 452.69 678.08 457.29 C 656.81 461.89 643.96 485.92 649.38 510.97 C 654.79 536.02 676.42 552.59 697.69 548.00 L 697.69 548.00 Z M 553.04 538.78 L 564.72 526.06 C 566.24 524.42 567.12 522.51 567.36 520.34 C 570.50 492.26 524.41 509.65 511.44 513.95 C 507.93 515.14 505.28 518.04 504.43 521.64 C 503.58 525.23 504.65 528.99 507.26 531.59 C 512.38 536.75 518.63 539.80 526.00 540.75 C 528.79 541.12 529.79 542.65 529.01 545.36 C 528.34 547.81 524.65 551.69 521.89 552.42 C 452.07 570.37 464.98 648.05 504.43 686.28 C 550.89 731.27 617.14 713.75 637.12 650.39 C 655.31 592.86 625.69 531.90 555.81 543.82 C 549.99 544.84 549.07 543.16 553.04 538.78 Z M 398.81 608.87 C 420.24 604.74 433.70 581.05 428.86 555.95 C 424.03 530.85 402.74 513.86 381.31 517.98 C 359.88 522.11 346.42 545.80 351.25 570.90 C 356.09 595.99 377.38 612.99 398.81 608.87 Z M 813.08 542.69 C 812.34 539.23 810.26 536.21 807.30 534.28 C 804.33 532.36 800.72 531.69 797.26 532.42 L 736.30 545.38 C 732.84 546.11 729.82 548.19 727.89 551.16 C 725.97 554.13 725.30 557.74 726.03 561.20 L 726.29 562.40 C 727.02 565.86 729.10 568.88 732.07 570.81 C 735.04 572.74 738.65 573.41 742.11 572.67 L 803.06 559.71 C 806.52 558.98 809.55 556.90 811.47 553.93 C 813.40 550.97 814.07 547.36 813.33 543.90 L 813.08 542.69 Z M 814.54 608.32 C 815.10 604.87 814.28 601.35 812.24 598.52 C 810.21 595.68 807.13 593.78 803.69 593.21 L 749.10 584.27 C 745.66 583.71 742.13 584.54 739.30 586.57 C 736.47 588.61 734.56 591.68 734.00 595.13 L 733.80 596.34 C 733.23 599.78 734.06 603.31 736.10 606.14 C 738.13 608.97 741.21 610.88 744.65 611.44 L 799.24 620.38 C 802.68 620.95 806.21 620.12 809.04 618.08 C 811.87 616.05 813.78 612.97 814.34 609.53 L 814.54 608.32 Z M 378.25 632.13 C 377.53 628.67 375.46 625.63 372.50 623.70 C 369.54 621.76 365.93 621.08 362.47 621.80 L 301.35 634.57 C 297.88 635.30 294.85 637.36 292.91 640.32 C 290.98 643.28 290.29 646.89 291.02 650.35 L 291.24 651.44 C 291.97 654.90 294.04 657.93 297.00 659.87 C 299.96 661.81 303.56 662.49 307.03 661.76 L 368.15 648.99 C 371.61 648.27 374.64 646.20 376.58 643.24 C 378.52 640.28 379.20 636.68 378.48 633.21 L 378.25 632.13 Z M 384.80 667.07 C 382.94 664.09 379.96 661.96 376.53 661.17 C 373.10 660.38 369.50 660.98 366.51 662.85 L 320.23 691.77 C 314.01 695.65 312.12 703.84 316.01 710.06 L 316.53 710.89 C 318.39 713.88 321.37 716.00 324.80 716.79 C 328.23 717.59 331.83 716.98 334.82 715.12 L 381.10 686.20 C 387.32 682.31 389.21 674.12 385.32 667.91 L 384.80 667.07 Z" fill="#b0b9c6" fill-rule="nonzero" group-id="1" id="形状" node-id="18" stroke="none" target-height="806.26" target-width="851.07" target-x="160.33" target-y="224.61"></path><path d="M 877.85 489.37 C 873.51 476.34 870.45 463.06 868.69 449.54 C 861.93 397.92 836.92 350.41 805.08 310.16 C 827.94 273.20 859.80 250.38 900.65 241.69 C 902.98 241.20 904.52 242.08 905.26 244.34 L 910.54 260.99 C 911.24 263.24 912.78 264.45 915.15 264.62 C 928.76 265.44 935.66 259.00 935.86 245.32 C 935.91 242.29 937.40 241.10 940.35 241.75 C 998.90 254.87 1034.65 290.90 1047.59 349.86 C 1048.09 352.11 1047.21 353.44 1044.95 353.85 L 1033.77 355.94 C 1031.51 356.35 1029.71 357.50 1028.36 359.38 C 1020.18 370.63 1027.44 381.14 1039.79 383.11 C 1046.06 384.13 1048.37 387.72 1046.73 393.86 C 1031.86 449.58 996.15 483.78 939.61 496.44 C 936.95 497.01 935.46 495.92 935.13 493.18 L 933.90 482.42 C 933.69 480.50 932.85 478.88 931.38 477.57 C 914.85 462.63 909.25 480.64 905.07 492.75 C 904.30 495.04 902.74 495.88 900.40 495.27 L 877.85 489.37 Z M 909.99 404.37 L 900.96 384.83 C 899.93 382.58 898.23 381.14 895.86 380.53 C 882.09 376.96 874.65 386.98 877.05 399.95 C 890.39 471.85 1000.64 430.61 954.79 364.06 C 953.65 362.42 953.50 360.70 954.36 358.89 C 962.80 341.52 961.74 326.65 951.17 314.28 C 922.47 280.66 868.14 316.43 890.20 339.53 C 892.33 341.77 895.28 343.05 898.38 343.09 C 901.48 343.12 904.47 341.91 906.67 339.72 L 917.73 328.66 C 919.74 326.65 921.71 326.67 923.63 328.72 L 931.50 337.14 C 933.59 339.35 933.30 341.19 930.64 342.67 C 908.09 354.90 892.48 364.98 927.57 379.42 C 945.39 386.80 934.76 413.90 915.21 408.74 C 912.80 408.12 911.06 406.67 909.99 404.37 Z" fill="#777677" fill-rule="nonzero" group-id="1" id="形状" node-id="19" stroke="none" target-height="255.91" target-width="243.28998" target-x="805.08" target-y="241.1"></path><path d="M 915.21 408.74 C 934.76 413.90 945.39 386.80 927.57 379.42 C 892.48 364.98 908.09 354.90 930.64 342.67 C 933.30 341.19 933.59 339.35 931.50 337.14 L 923.63 328.72 C 921.71 326.67 919.74 326.65 917.73 328.66 L 906.67 339.72 C 904.47 341.91 901.48 343.12 898.38 343.09 C 895.28 343.05 892.33 341.77 890.20 339.53 C 868.14 316.43 922.47 280.66 951.17 314.28 C 961.74 326.65 962.80 341.52 954.36 358.89 C 953.50 360.70 953.65 362.42 954.79 364.06 C 1000.64 430.61 890.39 471.85 877.05 399.95 C 874.65 386.98 882.09 376.96 895.86 380.53 C 898.23 381.14 899.93 382.58 900.96 384.83 L 909.99 404.37 C 911.06 406.67 912.80 408.12 915.21 408.74 Z" fill="#ffffff" fill-rule="nonzero" group-id="1" id="路径" node-id="20" stroke="none" target-height="191.19" target-width="132.5" target-x="868.14" target-y="280.66"></path><g node-id="37"><path d="M 599.68 421.62 L 654.44 410.88 L 655.30 410.88 L 656.05 411.20 L 656.63 411.78 L 656.96 412.57 L 661.51 435.73 L 661.50 436.59 L 661.18 437.35 L 660.60 437.93 L 659.81 438.26 L 605.05 449.00 L 604.19 448.99 L 603.44 448.68 L 602.86 448.10 L 602.53 447.30 L 597.98 424.14 L 597.99 423.28 L 598.31 422.53 L 598.88 421.95 L 599.68 421.62 Z" fill="#ffffff" fill-rule="nonzero" group-id="1,2" id="矩形" node-id="21" stroke="none" target-height="38.119995" target-width="63.53003" target-x="597.98" target-y="410.88"></path></g><path d="M 430.74 453.54 C 438.32 456.90 442.91 461.98 444.51 468.78 C 445.81 474.48 442.80 480.28 437.38 482.48 C 418.86 490.11 400.77 491.38 383.11 486.30 L 430.74 453.54 Z" fill="#ffffff" fill-rule="nonzero" group-id="1" id="路径" node-id="22" stroke="none" target-height="37.839996" target-width="62.700012" target-x="383.11" target-y="453.54"></path><path d="M 697.69 548.00 L 693.65 548.61 L 689.70 548.75 L 685.80 548.44 L 681.93 547.67 L 678.16 546.49 L 674.53 544.92 L 671.01 542.97 L 667.59 540.60 L 664.43 537.94 L 661.48 534.96 L 658.75 531.64 L 656.22 527.97 L 654.04 524.12 L 652.17 520.02 L 650.61 515.65 L 649.38 510.97 L 648.57 506.20 L 648.18 501.57 L 648.19 497.06 L 648.59 492.66 L 649.37 488.27 L 650.49 484.12 L 651.94 480.19 L 653.72 476.46 L 655.86 472.89 L 658.25 469.66 L 660.92 466.73 L 663.86 464.09 L 667.07 461.80 L 670.49 459.90 L 674.15 458.40 L 678.08 457.29 L 682.11 456.68 L 686.07 456.53 L 689.96 456.85 L 693.84 457.61 L 697.60 458.80 L 701.24 460.36 L 704.76 462.32 L 708.18 464.69 L 711.34 467.35 L 714.28 470.33 L 717.02 473.65 L 719.54 477.32 L 721.73 481.16 L 723.60 485.26 L 725.15 489.64 L 726.39 494.32 L 727.19 499.09 L 727.59 503.72 L 727.58 508.22 L 727.18 512.63 L 726.39 517.01 L 725.27 521.16 L 723.82 525.09 L 722.04 528.83 L 719.91 532.39 L 717.51 535.63 L 714.85 538.56 L 711.91 541.19 L 708.70 543.49 L 705.28 545.38 L 701.61 546.89 L 697.69 548.00 Z" fill="#605c5d" fill-rule="nonzero" group-id="1,3" id="椭圆形" node-id="23" stroke="none" target-height="92.22" target-width="79.410034" target-x="648.18" target-y="456.53"></path><path d="M 555.81 543.82 C 625.69 531.90 655.31 592.86 637.12 650.39 C 617.14 713.75 550.89 731.27 504.43 686.28 C 464.98 648.05 452.07 570.37 521.89 552.42 C 524.65 551.69 528.34 547.81 529.01 545.36 C 529.79 542.65 528.79 541.12 526.00 540.75 C 518.63 539.80 512.38 536.75 507.26 531.59 C 504.65 528.99 503.58 525.23 504.43 521.64 C 505.28 518.04 507.93 515.14 511.44 513.95 C 524.41 509.65 570.50 492.26 567.36 520.34 C 567.12 522.51 566.24 524.42 564.72 526.06 L 553.04 538.78 C 549.07 543.16 549.99 544.84 555.81 543.82 Z M 508.61 642.52 C 526.62 688.06 580.15 699.12 605.71 652.72 C 606.82 650.76 606.74 648.85 605.47 647.01 C 583.96 615.11 536.88 606.75 509.53 637.30 C 508.14 638.85 507.83 640.60 508.61 642.52 Z" fill="#678490" fill-rule="nonzero" group-id="1" id="形状" node-id="24" stroke="none" target-height="239.01001" target-width="203.23999" target-x="452.07" target-y="492.26"></path><path d="M 398.81 608.87 L 394.75 609.39 L 390.78 609.45 L 386.88 609.05 L 383.02 608.20 L 379.27 606.94 L 375.66 605.30 L 372.18 603.28 L 368.81 600.84 L 365.70 598.12 L 362.82 595.08 L 360.16 591.71 L 357.71 588.00 L 355.61 584.12 L 353.84 579.99 L 352.38 575.59 L 351.25 570.90 L 350.56 566.12 L 350.28 561.50 L 350.39 557.00 L 350.90 552.62 L 351.79 548.26 L 353.01 544.15 L 354.56 540.26 L 356.43 536.58 L 358.65 533.06 L 361.13 529.89 L 363.88 527.03 L 366.89 524.46 L 370.16 522.24 L 373.64 520.42 L 377.34 519.00 L 381.31 517.98 L 385.37 517.46 L 389.34 517.40 L 393.24 517.79 L 397.10 518.64 L 400.85 519.91 L 404.46 521.55 L 407.94 523.57 L 411.31 526.01 L 414.42 528.73 L 417.30 531.77 L 419.96 535.13 L 422.41 538.85 L 424.50 542.73 L 426.28 546.86 L 427.73 551.26 L 428.86 555.95 L 429.56 560.73 L 429.84 565.35 L 429.72 569.85 L 429.22 574.23 L 428.33 578.59 L 427.11 582.70 L 425.56 586.59 L 423.69 590.27 L 421.46 593.79 L 418.98 596.96 L 416.24 599.82 L 413.23 602.39 L 409.96 604.61 L 406.48 606.43 L 402.77 607.84 L 398.81 608.87 Z" fill="#605c5d" fill-rule="nonzero" group-id="1,4" id="椭圆形" node-id="25" stroke="none" target-height="92.04999" target-width="79.56" target-x="350.28" target-y="517.4"></path><path d="M 725.38 547.70 L 808.18 530.10 L 809.05 530.09 L 809.82 530.40 L 810.41 530.98 L 810.76 531.77 L 815.66 554.82 L 815.66 555.69 L 815.35 556.45 L 814.78 557.05 L 813.98 557.39 L 731.18 574.99 L 730.31 575.00 L 729.55 574.69 L 728.96 574.12 L 728.61 573.32 L 723.71 550.27 L 723.70 549.41 L 724.01 548.64 L 724.59 548.05 L 725.38 547.70 Z" fill="#91a1b5" fill-rule="nonzero" group-id="1,5" id="矩形" node-id="26" stroke="none" target-height="44.909973" target-width="91.95996" target-x="723.7" target-y="530.09"></path><path d="M 134.21 563.12 L 160.33 564.65 C 188.11 698.63 242.81 820.75 402.53 811.71 C 431.30 810.12 446.97 809.56 469.22 808.70 C 480.07 808.25 484.60 814.07 482.80 826.16 C 481.92 831.96 477.02 836.32 471.12 836.54 L 360.37 840.48 C 355.42 840.68 352.30 843.18 351.03 847.97 C 339.93 889.07 334.23 931.88 333.95 976.42 C 334.44 999.59 306.29 1004.94 306.23 977.65 C 306.15 929.79 312.09 883.46 324.05 838.63 C 324.87 835.56 323.77 833.55 320.73 832.61 C 197.51 794.87 148.47 680.69 134.21 563.12 Z" fill="#678490" fill-rule="nonzero" group-id="1" id="路径" node-id="27" stroke="none" target-height="441.82" target-width="350.39" target-x="134.21" target-y="563.12"></path><path d="M 1237.62 609.58 L 1262.57 616.59 C 1266.53 617.71 1269.25 621.32 1269.24 625.43 C 1269.22 629.54 1266.47 633.13 1262.51 634.22 L 1237.56 641.11 C 1234.45 641.96 1232.03 644.39 1231.17 647.50 L 1224.16 672.45 C 1223.04 676.40 1219.43 679.13 1215.32 679.11 C 1211.21 679.10 1207.62 676.35 1206.52 672.39 L 1199.64 647.44 C 1198.78 644.33 1196.36 641.90 1193.25 641.05 L 1168.30 634.04 C 1164.35 632.92 1161.62 629.31 1161.64 625.20 C 1161.65 621.09 1164.40 617.49 1168.36 616.40 L 1193.31 609.52 C 1196.42 608.66 1198.85 606.23 1199.70 603.13 L 1206.71 578.17 C 1207.83 574.22 1211.44 571.50 1215.55 571.51 C 1219.66 571.53 1223.26 574.28 1224.35 578.24 L 1231.23 603.19 C 1232.09 606.29 1234.52 608.72 1237.62 609.58 Z" fill="#ffffff" fill-rule="nonzero" group-id="1" id="路径" node-id="28" stroke="none" target-height="107.630005" target-width="107.630005" target-x="1161.62" target-y="571.5"></path><path d="M 738.23 582.49 L 814.55 594.99 L 815.35 595.29 L 815.95 595.85 L 816.29 596.59 L 816.32 597.45 L 812.56 620.40 L 812.26 621.20 L 811.70 621.79 L 810.96 622.13 L 810.10 622.16 L 733.79 609.66 L 732.98 609.36 L 732.39 608.80 L 732.05 608.06 L 732.02 607.21 L 735.78 584.26 L 736.08 583.46 L 736.64 582.87 L 737.38 582.53 L 738.23 582.49 Z" fill="#91a1b5" fill-rule="nonzero" group-id="1,6" id="矩形" node-id="29" stroke="none" target-height="39.669983" target-width="84.29999" target-x="732.02" target-y="582.49"></path><path d="M 605.71 652.72 C 580.15 699.12 526.62 688.06 508.61 642.52 C 507.83 640.60 508.14 638.85 509.53 637.30 C 536.88 606.75 583.96 615.11 605.47 647.01 C 606.74 648.85 606.82 650.76 605.71 652.72 Z" fill="#fd80a6" fill-rule="nonzero" group-id="1" id="路径" node-id="30" stroke="none" target-height="92.369995" target-width="98.99002" target-x="507.83" target-y="606.75"></path><path d="M 290.42 636.86 L 373.40 619.52 L 374.27 619.51 L 375.03 619.83 L 375.62 620.40 L 375.97 621.20 L 380.76 644.14 L 380.76 645.01 L 380.45 645.78 L 379.88 646.37 L 379.08 646.71 L 296.10 664.05 L 295.23 664.05 L 294.46 663.74 L 293.87 663.16 L 293.53 662.37 L 288.73 639.42 L 288.73 638.55 L 289.04 637.79 L 289.62 637.20 L 290.42 636.86 Z" fill="#91a1b5" fill-rule="nonzero" group-id="1,7" id="矩形" node-id="31" stroke="none" target-height="44.539978" target-width="92.03" target-x="288.73" target-y="619.51"></path><path d="M 310.80 697.66 L 375.94 656.96 L 376.75 656.66 L 377.57 656.69 L 378.32 657.02 L 378.91 657.65 L 391.21 677.33 L 391.52 678.14 L 391.49 678.96 L 391.15 679.71 L 390.53 680.31 L 325.39 721.01 L 324.58 721.31 L 323.76 721.28 L 323.01 720.95 L 322.42 720.32 L 310.12 700.63 L 309.81 699.82 L 309.84 699.00 L 310.18 698.25 L 310.80 697.66 Z" fill="#91a1b5" fill-rule="nonzero" group-id="1,8" id="矩形" node-id="32" stroke="none" target-height="64.650024" target-width="81.70999" target-x="309.81" target-y="656.66"></path></g></svg>