<svg t="1692777915699" class="icon" viewBox="0 0 1024 1024" version="1.1" xmlns="http://www.w3.org/2000/svg" p-id="7011" width="200" height="200"><path d="M87.073708 136.250069m56.652836 0l639.46888 0q56.652835 0 56.652835 56.652836l0 774.44426q0 56.652835-56.652835 56.652835l-639.46888 0q-56.652835 0-56.652836-56.652835l0-774.44426q0-56.652835 56.652836-56.652836Z" fill="#3ABDF3" p-id="7012"></path><path d="M587.601509 173.357676H339.320458a53.395297 53.395297 0 0 1-52.262241-43.481051 56.652835 56.652835 0 0 0-0.991424 9.772614 53.395297 53.395297 0 0 0 53.253665 53.253666h248.281051a53.395297 53.395297 0 0 0 53.253666-53.253666 56.652835 56.652835 0 0 0-1.416321-9.772614 53.395297 53.395297 0 0 1-51.837345 43.481051z" fill="#1BB1E0" p-id="7013"></path><path d="M139.619213 192.902905m56.652836 0l534.519502 0q56.652835 0 56.652835 56.652835l0 660.996957q0 56.652835-56.652835 56.652836l-534.519502 0q-56.652835 0-56.652836-56.652836l0-660.996957q0-56.652835 56.652836-56.652835Z" fill="#58D3F9" p-id="7014"></path><path d="M190.040237 313.148548m28.46805 0l327.878285 0q28.46805 0 28.468049 28.46805l0-0.141633q0 28.46805-28.468049 28.46805l-327.878285 0q-28.46805 0-28.46805-28.46805l0 0.141633q0-28.46805 28.46805-28.46805Z" fill="#EDEDED" p-id="7015"></path><path d="M190.040237 465.686307m28.46805 0l470.076901 0q28.46805 0 28.46805 28.46805l0-0.141632q0 28.46805-28.46805 28.46805l-470.076901 0q-28.46805 0-28.46805-28.46805l0 0.141632q0-28.46805 28.46805-28.46805Z" fill="#EDEDED" p-id="7016"></path><path d="M190.040237 604.060858m28.46805 0l470.076901 0q28.46805 0 28.46805 28.468049l0-0.141632q0 28.46805-28.46805 28.46805l-470.076901 0q-28.46805 0-28.46805-28.46805l0 0.141632q0-28.46805 28.46805-28.468049Z" fill="#EDEDED" p-id="7017"></path><path d="M190.040237 742.435408m28.46805 0l470.076901 0q28.46805 0 28.46805 28.46805l0-0.141632q0 28.46805-28.46805 28.46805l-470.076901 0q-28.46805 0-28.46805-28.46805l0 0.141632q0-28.46805 28.46805-28.46805Z" fill="#EDEDED" p-id="7018"></path><path d="M546.386572 369.943015H218.366654a28.326418 28.326418 0 0 1-27.334993-21.244813 28.326418 28.326418 0 0 0 27.334993 35.408022h328.019918a28.326418 28.326418 0 0 0 27.334993-35.408022 28.326418 28.326418 0 0 1-27.334993 21.244813zM688.585188 522.480775H218.366654a28.326418 28.326418 0 0 1-27.334993-21.244814 28.326418 28.326418 0 0 0 27.334993 35.408022h470.218534a28.326418 28.326418 0 0 0 28.326418-28.326417 23.227663 23.227663 0 0 0-1.133057-7.081605 28.326418 28.326418 0 0 1-27.193361 21.244814zM712.096115 630.68769v1.699585a28.326418 28.326418 0 0 1-28.326418 28.326418H213.692796a28.326418 28.326418 0 0 1-23.510927-12.463624 28.326418 28.326418 0 0 0 28.326418 26.626833h470.218533a28.326418 28.326418 0 0 0 28.326418-28.326418 28.326418 28.326418 0 0 0-4.957123-15.862794zM688.585188 799.229876H218.366654a28.326418 28.326418 0 0 1-27.334993-21.386446 29.459474 29.459474 0 0 0-0.991424 7.081605 28.326418 28.326418 0 0 0 28.326417 28.326417h470.218534a28.326418 28.326418 0 0 0 28.326418-28.326417 23.935823 23.935823 0 0 0-1.133057-7.081605 28.326418 28.326418 0 0 1-27.193361 21.386446z" fill="#0EACDD" p-id="7019"></path><path d="M587.601509 66.42545h-54.669986a69.682988 69.682988 0 0 0-139.082711 0h-54.528354a53.253665 53.253665 0 1 0 0 106.50733h248.281051a53.253665 53.253665 0 0 0 0-106.50733z m-124.211341 13.313416a28.326418 28.326418 0 1 1 28.326417-28.326418 27.618257 27.618257 0 0 1-28.326417 28.326418z" fill="#FCB85E" p-id="7020"></path></svg>